<svg xmlns="http://www.w3.org/2000/svg" xmlns:xlink="http://www.w3.org/1999/xlink" width="500" zoomAndPan="magnify" viewBox="0 0 375 374.999991" height="500" preserveAspectRatio="xMidYMid meet" version="1.0"><defs><g/><clipPath id="7ab765b432"><path d="M 6.117188 118.003906 L 276.269531 118.003906 L 276.269531 307.386719 L 6.117188 307.386719 Z M 6.117188 118.003906 " clip-rule="nonzero"/></clipPath><clipPath id="a30d1a9fe1"><path d="M 24 154 L 279.757812 154 L 279.757812 284 L 24 284 Z M 24 154 " clip-rule="nonzero"/></clipPath><clipPath id="d38cc82007"><path d="M 24 154 L 279.757812 154 L 279.757812 284 L 24 284 Z M 24 154 " clip-rule="nonzero"/></clipPath><clipPath id="dcf727889a"><path d="M 6.117188 118.003906 L 276.269531 118.003906 L 276.269531 307.386719 L 6.117188 307.386719 Z M 6.117188 118.003906 " clip-rule="nonzero"/></clipPath><clipPath id="927f36d608"><path d="M 264.222656 67.476562 L 369.3125 67.476562 L 369.3125 172.566406 L 264.222656 172.566406 Z M 264.222656 67.476562 " clip-rule="nonzero"/></clipPath></defs><path fill="#ad9cfb" d="M 198.773438 165.222656 C 204.757812 165.222656 209.632812 160.328125 209.632812 154.3125 C 209.632812 148.292969 204.757812 143.398438 198.773438 143.398438 C 192.785156 143.398438 187.914062 148.292969 187.914062 154.3125 C 187.914062 160.328125 192.785156 165.222656 198.773438 165.222656 " fill-opacity="1" fill-rule="nonzero"/><path fill="#ad9cfb" d="M 212.136719 198.847656 C 212.136719 197.15625 213.507812 195.785156 215.199219 195.785156 C 216.890625 195.785156 218.261719 197.15625 218.261719 198.847656 L 218.261719 202.996094 L 223.765625 198.542969 L 223.632812 194.203125 C 223.367188 184.023438 212.464844 181.738281 208.667969 181.738281 L 188.21875 181.652344 C 176.601562 182.617188 174.179688 193.230469 174.238281 202.019531 C 174.378906 202.859375 174.480469 203.726562 174.503906 204.636719 L 174.65625 218.367188 C 174.660156 218.636719 174.617188 218.894531 174.554688 219.144531 L 180.429688 220.203125 L 180.453125 198.84375 C 180.457031 197.152344 181.828125 195.785156 183.519531 195.785156 C 185.210938 195.789062 186.582031 197.160156 186.578125 198.851562 L 186.554688 220.71875 C 186.554688 220.917969 186.53125 221.109375 186.496094 221.296875 L 193.964844 222.644531 L 212.136719 207.949219 L 212.136719 198.847656 " fill-opacity="1" fill-rule="nonzero"/><path fill="#ffffff" d="M 198.773438 137.277344 C 208.136719 137.277344 215.757812 144.917969 215.757812 154.3125 C 215.757812 163.703125 208.136719 171.34375 198.773438 171.34375 C 189.410156 171.34375 181.789062 163.703125 181.789062 154.3125 C 181.789062 144.917969 189.410156 137.277344 198.773438 137.277344 " fill-opacity="1" fill-rule="nonzero"/><path fill="#ffffff" d="M 143.523438 147.882812 C 152.890625 147.882812 160.507812 155.527344 160.507812 164.921875 C 160.507812 174.3125 152.890625 181.957031 143.523438 181.957031 C 134.160156 181.957031 126.539062 174.3125 126.539062 164.921875 C 126.539062 155.527344 134.160156 147.882812 143.523438 147.882812 " fill-opacity="1" fill-rule="nonzero"/><path fill="#ffffff" d="M 87.691406 164.277344 C 97.054688 164.277344 104.675781 171.917969 104.675781 181.3125 C 104.675781 190.707031 97.054688 198.347656 87.691406 198.347656 C 78.328125 198.347656 70.707031 190.707031 70.707031 181.3125 C 70.707031 171.917969 78.328125 164.277344 87.691406 164.277344 " fill-opacity="1" fill-rule="nonzero"/><g clip-path="url(#7ab765b432)"><path fill="#ffffff" d="M 257.589844 307.523438 L 257.5625 302.441406 L 13.605469 302.441406 C 12.195312 302.441406 11.054688 301.300781 11.054688 299.890625 L 11.054688 136.683594 L 6.117188 136.710938 L 13.652344 118.003906 L 21.382812 136.628906 L 16.15625 136.65625 L 16.15625 297.339844 L 257.535156 297.339844 L 257.507812 292.257812 L 276.214844 299.789062 L 257.589844 307.523438 " fill-opacity="1" fill-rule="nonzero"/></g><g clip-path="url(#a30d1a9fe1)"><path fill="#ffffff" d="M 265.648438 183.769531 L 259.757812 177.308594 L 196.726562 228.285156 C 196.03125 228.847656 195.121094 229.074219 194.257812 228.921875 L 148.082031 220.597656 L 109.984375 250.972656 C 109.101562 251.675781 107.914062 251.835938 106.875 251.398438 L 85.441406 242.292969 L 29.441406 283.265625 C 28.898438 283.664062 28.265625 283.855469 27.636719 283.855469 C 26.695312 283.855469 25.761719 283.417969 25.164062 282.601562 C 24.164062 281.234375 24.460938 279.320312 25.828125 278.320312 L 56.890625 255.59375 C 56.753906 255.253906 56.671875 254.886719 56.671875 254.496094 L 56.453125 222.625 C 56.351562 211.800781 65.574219 202.785156 77.019531 202.527344 L 77.265625 202.523438 L 97.582031 202.613281 C 102.246094 202.613281 107.984375 204.324219 112.300781 207.929688 L 112.285156 206.242188 C 112.183594 195.410156 121.414062 186.390625 132.851562 186.136719 L 133.101562 186.132812 L 153.417969 186.222656 C 158.453125 186.222656 164.738281 188.21875 169.132812 192.4375 C 171.519531 182.386719 178.050781 176.351562 187.914062 175.535156 L 188.351562 175.523438 L 208.667969 175.613281 C 217.152344 175.613281 229.207031 181.242188 229.726562 193.722656 L 255.625 172.777344 L 248.898438 165.402344 L 279.730469 154.109375 L 265.648438 183.769531 " fill-opacity="1" fill-rule="nonzero"/></g><path fill="#ad9cfb" d="M 76.832031 181.3125 C 76.832031 187.328125 81.707031 192.222656 87.691406 192.222656 C 93.679688 192.222656 98.550781 187.328125 98.550781 181.3125 C 98.550781 175.296875 93.679688 170.402344 87.691406 170.402344 C 81.707031 170.402344 76.832031 175.296875 76.832031 181.3125 " fill-opacity="1" fill-rule="nonzero"/><path fill="#000000" d="M 98.550781 181.3125 C 98.550781 187.328125 93.679688 192.222656 87.691406 192.222656 C 81.707031 192.222656 76.832031 187.328125 76.832031 181.3125 C 76.832031 175.296875 81.707031 170.402344 87.691406 170.402344 C 93.679688 170.402344 98.550781 175.296875 98.550781 181.3125 Z M 87.691406 198.347656 C 97.054688 198.347656 104.675781 190.707031 104.675781 181.3125 C 104.675781 171.917969 97.054688 164.277344 87.691406 164.277344 C 78.328125 164.277344 70.707031 171.917969 70.707031 181.3125 C 70.707031 190.707031 78.328125 198.347656 87.691406 198.347656 " fill-opacity="1" fill-rule="nonzero"/><path fill="#ad9cfb" d="M 112.695312 240.976562 L 112.546875 221.132812 C 112.285156 211.023438 101.382812 208.738281 97.582031 208.738281 L 77.136719 208.652344 C 69.046875 208.832031 62.507812 215.082031 62.578125 222.578125 L 62.773438 251.289062 L 69.347656 246.480469 L 69.371094 225.84375 C 69.375 224.15625 70.746094 222.785156 72.433594 222.785156 C 72.4375 222.785156 72.4375 222.785156 72.4375 222.785156 C 74.128906 222.789062 75.5 224.160156 75.496094 225.851562 L 75.476562 241.992188 L 83.230469 236.320312 C 84.101562 235.6875 85.242188 235.550781 86.238281 235.976562 L 101.054688 242.269531 L 101.054688 225.847656 C 101.054688 224.15625 102.425781 222.785156 104.117188 222.785156 C 105.808594 222.785156 107.179688 224.15625 107.179688 225.847656 L 107.179688 244.871094 L 107.589844 245.046875 L 112.695312 240.976562 " fill-opacity="1" fill-rule="nonzero"/><path fill="#ad9cfb" d="M 132.664062 164.921875 C 132.664062 170.933594 137.539062 175.832031 143.523438 175.832031 C 149.511719 175.832031 154.382812 170.933594 154.382812 164.921875 C 154.382812 158.902344 149.511719 154.007812 143.523438 154.007812 C 137.539062 154.007812 132.664062 158.902344 132.664062 164.921875 " fill-opacity="1" fill-rule="nonzero"/><path fill="#000000" d="M 154.382812 164.921875 C 154.382812 170.9375 149.511719 175.828125 143.523438 175.828125 C 137.539062 175.828125 132.664062 170.9375 132.664062 164.921875 C 132.664062 158.902344 137.539062 154.007812 143.523438 154.007812 C 149.511719 154.007812 154.382812 158.902344 154.382812 164.921875 Z M 143.523438 181.957031 C 152.890625 181.957031 160.507812 174.3125 160.507812 164.921875 C 160.507812 155.527344 152.890625 147.882812 143.523438 147.882812 C 134.160156 147.882812 126.539062 155.527344 126.539062 164.921875 C 126.539062 174.3125 134.160156 181.957031 143.523438 181.957031 " fill-opacity="1" fill-rule="nonzero"/><path fill="#ad9cfb" d="M 145.347656 214.945312 C 146.039062 214.394531 146.945312 214.171875 147.800781 214.324219 L 156.886719 215.960938 L 156.886719 209.457031 C 156.886719 207.765625 158.257812 206.394531 159.949219 206.394531 C 161.640625 206.394531 163.011719 207.765625 163.011719 209.457031 L 163.011719 217.015625 C 163.011719 217.03125 163.007812 217.046875 163.007812 217.0625 L 168.527344 218.058594 L 168.378906 204.75 C 168.117188 194.632812 157.214844 192.347656 153.417969 192.347656 L 132.96875 192.261719 C 124.878906 192.441406 118.34375 198.6875 118.410156 206.1875 L 118.527344 219.039062 C 118.527344 219.097656 118.515625 219.148438 118.515625 219.203125 C 118.585938 219.800781 118.65625 220.398438 118.671875 221.03125 L 118.785156 236.121094 L 125.574219 230.707031 C 125.328125 230.269531 125.179688 229.769531 125.179688 229.230469 L 125.203125 209.453125 C 125.207031 207.761719 126.578125 206.394531 128.265625 206.394531 C 128.269531 206.394531 128.269531 206.394531 128.269531 206.394531 C 129.960938 206.394531 131.332031 207.769531 131.328125 209.460938 L 131.308594 226.136719 L 145.347656 214.945312 " fill-opacity="1" fill-rule="nonzero"/><path fill="#000000" d="M 198.773438 143.398438 C 204.761719 143.398438 209.632812 148.292969 209.632812 154.3125 C 209.632812 160.328125 204.761719 165.222656 198.773438 165.222656 C 192.785156 165.222656 187.914062 160.328125 187.914062 154.3125 C 187.914062 148.292969 192.785156 143.398438 198.773438 143.398438 Z M 198.773438 171.34375 C 208.136719 171.34375 215.757812 163.703125 215.757812 154.3125 C 215.757812 144.917969 208.136719 137.277344 198.773438 137.277344 C 189.410156 137.277344 181.789062 144.917969 181.789062 154.3125 C 181.789062 163.703125 189.410156 171.34375 198.773438 171.34375 " fill-opacity="1" fill-rule="nonzero"/><g clip-path="url(#d38cc82007)"><path fill="#000000" d="M 193.96875 222.644531 L 186.496094 221.296875 C 186.53125 221.109375 186.550781 220.917969 186.550781 220.71875 L 186.578125 198.851562 C 186.582031 197.160156 185.210938 195.789062 183.519531 195.785156 C 181.828125 195.785156 180.457031 197.152344 180.453125 198.84375 L 180.429688 220.203125 L 174.554688 219.144531 C 174.617188 218.894531 174.660156 218.636719 174.65625 218.367188 L 174.503906 204.636719 C 174.480469 203.726562 174.378906 202.859375 174.238281 202.019531 C 174.179688 193.230469 176.601562 182.617188 188.21875 181.652344 L 208.667969 181.738281 C 212.464844 181.738281 223.367188 184.023438 223.632812 194.203125 L 223.765625 198.542969 L 218.261719 202.996094 L 218.261719 198.847656 C 218.261719 197.15625 216.886719 195.785156 215.199219 195.785156 C 213.507812 195.785156 212.132812 197.15625 212.132812 198.847656 L 212.132812 207.949219 Z M 107.59375 245.046875 L 107.179688 244.871094 L 107.179688 225.847656 C 107.179688 224.15625 105.808594 222.785156 104.117188 222.785156 C 102.425781 222.785156 101.054688 224.15625 101.054688 225.847656 L 101.054688 242.269531 L 86.238281 235.976562 C 85.242188 235.550781 84.101562 235.6875 83.230469 236.320312 L 75.476562 241.992188 L 75.496094 225.851562 C 75.5 224.160156 74.128906 222.789062 72.4375 222.785156 C 72.4375 222.785156 72.4375 222.785156 72.433594 222.785156 C 70.746094 222.785156 69.375 224.15625 69.371094 225.84375 L 69.347656 246.480469 L 62.773438 251.289062 L 62.578125 222.578125 C 62.507812 215.082031 69.046875 208.832031 77.136719 208.652344 L 97.582031 208.738281 C 101.382812 208.738281 112.285156 211.023438 112.546875 221.132812 L 112.695312 240.976562 Z M 131.328125 209.460938 C 131.332031 207.769531 129.960938 206.394531 128.269531 206.394531 C 128.269531 206.394531 128.269531 206.394531 128.265625 206.394531 C 126.578125 206.394531 125.207031 207.761719 125.203125 209.453125 L 125.179688 229.230469 C 125.179688 229.769531 125.328125 230.269531 125.574219 230.707031 L 118.785156 236.121094 L 118.671875 221.03125 C 118.65625 220.398438 118.585938 219.800781 118.515625 219.203125 C 118.519531 219.148438 118.527344 219.097656 118.527344 219.039062 L 118.410156 206.1875 C 118.339844 198.6875 124.878906 192.441406 132.96875 192.261719 L 153.417969 192.347656 C 157.214844 192.347656 168.117188 194.632812 168.378906 204.75 L 168.527344 218.058594 L 163.007812 217.0625 C 163.007812 217.046875 163.011719 217.03125 163.011719 217.015625 L 163.011719 209.457031 C 163.011719 207.765625 161.640625 206.394531 159.949219 206.394531 C 158.257812 206.394531 156.886719 207.765625 156.886719 209.457031 L 156.886719 215.960938 L 147.800781 214.324219 C 146.945312 214.171875 146.039062 214.394531 145.347656 214.945312 L 131.308594 226.136719 Z M 255.625 172.777344 L 229.726562 193.722656 C 229.207031 181.242188 217.152344 175.613281 208.667969 175.613281 L 188.351562 175.523438 L 187.914062 175.535156 C 178.050781 176.351562 171.519531 182.386719 169.132812 192.4375 C 164.738281 188.21875 158.453125 186.222656 153.417969 186.222656 L 133.101562 186.132812 L 132.851562 186.136719 C 121.414062 186.390625 112.183594 195.410156 112.285156 206.242188 L 112.300781 207.929688 C 107.984375 204.324219 102.246094 202.613281 97.582031 202.613281 L 77.265625 202.523438 L 77.019531 202.527344 C 65.574219 202.785156 56.351562 211.800781 56.453125 222.625 L 56.671875 254.496094 C 56.671875 254.886719 56.753906 255.253906 56.890625 255.59375 L 25.828125 278.320312 C 24.460938 279.320312 24.164062 281.234375 25.164062 282.601562 C 25.761719 283.417969 26.695312 283.855469 27.636719 283.855469 C 28.265625 283.855469 28.898438 283.664062 29.441406 283.265625 L 85.441406 242.292969 L 106.875 251.398438 C 107.914062 251.835938 109.101562 251.675781 109.984375 250.972656 L 148.082031 220.597656 L 194.257812 228.921875 C 195.121094 229.074219 196.03125 228.847656 196.726562 228.285156 L 259.757812 177.308594 L 265.648438 183.769531 L 279.730469 154.109375 L 248.898438 165.402344 L 255.625 172.777344 " fill-opacity="1" fill-rule="nonzero"/></g><g clip-path="url(#dcf727889a)"><path fill="#515171" d="M 257.535156 297.339844 L 16.15625 297.339844 L 16.15625 136.65625 L 21.382812 136.628906 L 13.652344 118.003906 L 6.117188 136.710938 L 11.054688 136.683594 L 11.054688 299.890625 C 11.054688 301.300781 12.195312 302.441406 13.605469 302.441406 L 257.5625 302.441406 L 257.589844 307.523438 L 276.214844 299.789062 L 257.507812 292.257812 L 257.535156 297.339844 " fill-opacity="1" fill-rule="nonzero"/></g><path fill="#ad9cfb" d="M 198.773438 165.222656 C 204.757812 165.222656 209.632812 160.328125 209.632812 154.3125 C 209.632812 148.292969 204.757812 143.398438 198.773438 143.398438 C 192.785156 143.398438 187.914062 148.292969 187.914062 154.3125 C 187.914062 160.328125 192.785156 165.222656 198.773438 165.222656 " fill-opacity="1" fill-rule="nonzero"/><path fill="#ad9cfb" d="M 212.136719 198.847656 C 212.136719 197.15625 213.507812 195.785156 215.199219 195.785156 C 216.890625 195.785156 218.261719 197.15625 218.261719 198.847656 L 218.261719 202.996094 L 223.765625 198.542969 L 223.632812 194.203125 C 223.367188 184.023438 212.464844 181.738281 208.667969 181.738281 L 188.21875 181.652344 C 176.601562 182.617188 174.179688 193.230469 174.238281 202.019531 C 174.378906 202.859375 174.480469 203.726562 174.503906 204.636719 L 174.65625 218.367188 C 174.660156 218.636719 174.617188 218.894531 174.554688 219.144531 L 180.429688 220.203125 L 180.453125 198.84375 C 180.457031 197.152344 181.828125 195.785156 183.519531 195.785156 C 185.210938 195.789062 186.582031 197.160156 186.578125 198.851562 L 186.554688 220.71875 C 186.554688 220.917969 186.53125 221.109375 186.496094 221.296875 L 193.964844 222.644531 L 212.136719 207.949219 L 212.136719 198.847656 " fill-opacity="1" fill-rule="nonzero"/><g clip-path="url(#927f36d608)"><path fill="#000000" d="M 369.3125 120.023438 C 369.3125 107.28125 364.753906 95.585938 357.183594 86.480469 C 357.132812 86.402344 357.082031 86.328125 357.023438 86.253906 C 356.957031 86.171875 356.882812 86.101562 356.804688 86.035156 C 347.160156 74.6875 332.789062 67.476562 316.769531 67.476562 C 300.746094 67.476562 286.378906 74.6875 276.730469 86.035156 C 276.65625 86.101562 276.582031 86.171875 276.511719 86.253906 C 276.453125 86.328125 276.402344 86.402344 276.351562 86.480469 C 268.78125 95.585938 264.222656 107.28125 264.222656 120.023438 C 264.222656 133.625 269.417969 146.039062 277.929688 155.378906 C 277.949219 155.40625 277.964844 155.429688 277.984375 155.457031 C 278.085938 155.59375 278.203125 155.707031 278.332031 155.808594 C 287.929688 166.113281 301.609375 172.566406 316.769531 172.566406 C 331.925781 172.566406 345.601562 166.113281 355.199219 155.8125 C 355.328125 155.710938 355.449219 155.59375 355.550781 155.457031 C 355.570312 155.429688 355.585938 155.40625 355.605469 155.378906 C 364.117188 146.039062 369.3125 133.625 369.3125 120.023438 Z M 348.234375 148.296875 C 351.777344 140.476562 353.785156 131.453125 354.03125 121.996094 L 365.324219 121.996094 C 364.871094 133.273438 360.558594 143.570312 353.671875 151.605469 C 351.960938 150.410156 350.144531 149.304688 348.234375 148.296875 Z M 279.863281 151.605469 C 272.976562 143.570312 268.667969 133.273438 268.214844 121.996094 L 279.503906 121.996094 C 279.75 131.453125 281.757812 140.476562 285.300781 148.296875 C 283.390625 149.304688 281.574219 150.410156 279.863281 151.605469 Z M 278.355469 90.289062 C 280.199219 91.6875 282.179688 92.976562 284.277344 94.144531 C 281.371094 101.390625 279.726562 109.546875 279.503906 118.050781 L 268.214844 118.050781 C 268.632812 107.621094 272.351562 98.027344 278.355469 90.289062 Z M 365.324219 118.050781 L 354.03125 118.050781 C 353.808594 109.546875 352.164062 101.390625 349.257812 94.144531 C 351.355469 92.976562 353.335938 91.6875 355.179688 90.289062 C 361.183594 98.027344 364.902344 107.621094 365.324219 118.050781 Z M 350.082031 118.050781 L 333.960938 118.050781 C 333.890625 111.882812 333.492188 105.90625 332.796875 100.332031 C 337.367188 99.296875 341.71875 97.824219 345.726562 95.949219 C 348.304688 102.515625 349.863281 110.035156 350.082031 118.050781 Z M 318.742188 167.925781 L 318.742188 144.867188 C 321.839844 144.957031 324.902344 145.246094 327.886719 145.730469 C 327.265625 149.144531 326.519531 152.328125 325.648438 155.214844 C 323.695312 161.703125 321.179688 166.261719 318.742188 167.925781 Z M 307.886719 155.214844 C 307.019531 152.328125 306.269531 149.144531 305.648438 145.730469 C 308.632812 145.246094 311.695312 144.957031 314.792969 144.867188 L 314.792969 167.925781 C 312.359375 166.261719 309.84375 161.703125 307.886719 155.214844 Z M 314.792969 72.121094 L 314.792969 98.125 C 311.519531 98.03125 308.296875 97.71875 305.164062 97.1875 C 305.867188 92.679688 306.777344 88.515625 307.886719 84.832031 C 309.84375 78.34375 312.359375 73.785156 314.792969 72.121094 Z M 325.648438 84.832031 C 326.757812 88.515625 327.671875 92.679688 328.371094 97.1875 C 325.242188 97.71875 322.019531 98.03125 318.742188 98.125 L 318.742188 72.121094 C 321.179688 73.785156 323.695312 78.34375 325.648438 84.832031 Z M 314.792969 102.074219 L 314.792969 118.050781 L 303.523438 118.050781 C 303.589844 112.144531 303.964844 106.425781 304.621094 101.097656 C 307.933594 101.652344 311.339844 101.980469 314.792969 102.074219 Z M 314.792969 121.996094 L 314.792969 140.917969 C 311.484375 141.007812 308.207031 141.320312 305.011719 141.839844 C 304.113281 135.714844 303.601562 128.984375 303.523438 121.996094 Z M 318.742188 140.917969 L 318.742188 121.996094 L 330.015625 121.996094 C 329.933594 128.984375 329.421875 135.714844 328.523438 141.839844 C 325.328125 141.320312 322.050781 141.007812 318.742188 140.917969 Z M 318.742188 118.050781 L 318.742188 102.074219 C 322.199219 101.980469 325.601562 101.652344 328.914062 101.097656 C 329.570312 106.425781 329.945312 112.144531 330.015625 118.050781 Z M 332.242188 96.414062 C 331.515625 91.785156 330.574219 87.496094 329.429688 83.695312 C 328.050781 79.117188 326.449219 75.472656 324.671875 72.808594 C 332.6875 75.65625 339.574219 82.742188 344.15625 92.335938 C 340.46875 94.070312 336.460938 95.441406 332.242188 96.414062 Z M 308.867188 72.808594 C 307.085938 75.472656 305.484375 79.117188 304.109375 83.695312 C 302.960938 87.496094 302.019531 91.785156 301.292969 96.414062 C 297.074219 95.441406 293.066406 94.070312 289.382812 92.335938 C 293.960938 82.742188 300.851562 75.65625 308.867188 72.808594 Z M 300.742188 100.332031 C 300.042969 105.90625 299.644531 111.882812 299.574219 118.050781 L 283.453125 118.050781 C 283.675781 110.035156 285.230469 102.515625 287.808594 95.949219 C 291.816406 97.824219 296.167969 99.296875 300.742188 100.332031 Z M 283.453125 121.996094 L 299.574219 121.996094 C 299.65625 129.234375 300.191406 136.214844 301.132812 142.582031 C 296.820312 143.539062 292.6875 144.878906 288.855469 146.578125 C 285.65625 139.453125 283.703125 131.039062 283.453125 121.996094 Z M 301.773438 146.476562 C 302.421875 150.027344 303.199219 153.339844 304.109375 156.351562 C 305.484375 160.929688 307.085938 164.570312 308.867188 167.238281 C 301.535156 164.632812 295.144531 158.484375 290.605469 150.113281 C 294.09375 148.582031 297.847656 147.359375 301.773438 146.476562 Z M 324.671875 167.238281 C 326.449219 164.570312 328.050781 160.929688 329.429688 156.351562 C 330.335938 153.339844 331.117188 150.027344 331.761719 146.476562 C 335.6875 147.359375 339.445312 148.582031 342.933594 150.113281 C 338.390625 158.484375 332 164.632812 324.671875 167.238281 Z M 332.402344 142.582031 C 333.34375 136.214844 333.878906 129.234375 333.960938 121.996094 L 350.082031 121.996094 C 349.832031 131.039062 347.882812 139.453125 344.679688 146.578125 C 340.847656 144.878906 336.714844 143.539062 332.402344 142.582031 Z M 352.636719 87.265625 C 351.078125 88.4375 349.414062 89.523438 347.660156 90.523438 C 346.398438 87.90625 344.964844 85.429688 343.359375 83.132812 C 341.421875 80.359375 339.300781 77.929688 337.039062 75.859375 C 342.976562 78.597656 348.273438 82.496094 352.636719 87.265625 Z M 296.5 75.859375 C 294.234375 77.929688 292.113281 80.359375 290.175781 83.132812 C 288.570312 85.429688 287.136719 87.90625 285.875 90.523438 C 284.121094 89.523438 282.457031 88.4375 280.902344 87.265625 C 285.261719 82.496094 290.558594 78.597656 296.5 75.859375 Z M 282.578125 154.523438 C 283.996094 153.5625 285.492188 152.664062 287.054688 151.832031 C 288.011719 153.605469 289.050781 155.300781 290.175781 156.914062 C 292.113281 159.6875 294.234375 162.117188 296.5 164.1875 C 291.300781 161.789062 286.59375 158.503906 282.578125 154.523438 Z M 343.359375 156.914062 C 344.484375 155.300781 345.523438 153.605469 346.480469 151.832031 C 348.046875 152.664062 349.542969 153.5625 350.957031 154.523438 C 346.941406 158.503906 342.234375 161.789062 337.039062 164.1875 C 339.300781 162.117188 341.421875 159.6875 343.359375 156.914062 Z M 343.359375 156.914062 " fill-opacity="1" fill-rule="nonzero"/></g><g fill="#000000" fill-opacity="1"><g transform="translate(60.822111, 287.287578)"><g><path d="M 13.234375 -16.390625 L 13.234375 -13.1875 L 8.890625 -13.1875 L 8.890625 0 L 4.90625 0 L 4.90625 -13.1875 L 0.5625 -13.1875 L 0.5625 -16.390625 Z M 13.234375 -16.390625 "/></g></g></g><g fill="#000000" fill-opacity="1"><g transform="translate(74.620596, 287.287578)"><g><path d="M 5.4375 -10.859375 C 5.90625 -11.566406 6.488281 -12.128906 7.1875 -12.546875 C 7.882812 -12.960938 8.664062 -13.171875 9.53125 -13.171875 L 9.53125 -8.9375 L 8.421875 -8.9375 C 7.429688 -8.9375 6.6875 -8.722656 6.1875 -8.296875 C 5.6875 -7.867188 5.4375 -7.117188 5.4375 -6.046875 L 5.4375 0 L 1.453125 0 L 1.453125 -13.03125 L 5.4375 -13.03125 Z M 5.4375 -10.859375 "/></g></g></g><g fill="#000000" fill-opacity="1"><g transform="translate(84.613418, 287.287578)"><g><path d="M 0.65625 -6.53125 C 0.65625 -7.875 0.90625 -9.050781 1.40625 -10.0625 C 1.914062 -11.070312 2.601562 -11.847656 3.46875 -12.390625 C 4.34375 -12.941406 5.316406 -13.21875 6.390625 -13.21875 C 7.316406 -13.21875 8.125 -13.03125 8.8125 -12.65625 C 9.5 -12.28125 10.03125 -11.789062 10.40625 -11.1875 L 10.40625 -13.03125 L 14.40625 -13.03125 L 14.40625 0 L 10.40625 0 L 10.40625 -1.84375 C 10.019531 -1.238281 9.476562 -0.75 8.78125 -0.375 C 8.09375 0 7.289062 0.1875 6.375 0.1875 C 5.3125 0.1875 4.34375 -0.0859375 3.46875 -0.640625 C 2.601562 -1.191406 1.914062 -1.976562 1.40625 -3 C 0.90625 -4.019531 0.65625 -5.195312 0.65625 -6.53125 Z M 10.40625 -6.515625 C 10.40625 -7.503906 10.128906 -8.285156 9.578125 -8.859375 C 9.023438 -9.441406 8.351562 -9.734375 7.5625 -9.734375 C 6.769531 -9.734375 6.097656 -9.445312 5.546875 -8.875 C 4.992188 -8.3125 4.71875 -7.53125 4.71875 -6.53125 C 4.71875 -5.539062 4.992188 -4.753906 5.546875 -4.171875 C 6.097656 -3.585938 6.769531 -3.296875 7.5625 -3.296875 C 8.351562 -3.296875 9.023438 -3.582031 9.578125 -4.15625 C 10.128906 -4.726562 10.40625 -5.515625 10.40625 -6.515625 Z M 10.40625 -6.515625 "/></g></g></g><g fill="#000000" fill-opacity="1"><g transform="translate(100.466511, 287.287578)"><g><path d="M 7.984375 -9.71875 L 5.84375 -9.71875 L 5.84375 0 L 1.84375 0 L 1.84375 -9.71875 L 0.390625 -9.71875 L 0.390625 -13.03125 L 1.84375 -13.03125 L 1.84375 -13.40625 C 1.84375 -15 2.300781 -16.210938 3.21875 -17.046875 C 4.132812 -17.878906 5.484375 -18.296875 7.265625 -18.296875 C 7.554688 -18.296875 7.769531 -18.289062 7.90625 -18.28125 L 7.90625 -14.890625 C 7.144531 -14.941406 6.609375 -14.832031 6.296875 -14.5625 C 5.992188 -14.300781 5.84375 -13.828125 5.84375 -13.140625 L 5.84375 -13.03125 L 7.984375 -13.03125 Z M 7.984375 -9.71875 "/></g></g></g><g fill="#000000" fill-opacity="1"><g transform="translate(108.871691, 287.287578)"><g><path d="M 7.984375 -9.71875 L 5.84375 -9.71875 L 5.84375 0 L 1.84375 0 L 1.84375 -9.71875 L 0.390625 -9.71875 L 0.390625 -13.03125 L 1.84375 -13.03125 L 1.84375 -13.40625 C 1.84375 -15 2.300781 -16.210938 3.21875 -17.046875 C 4.132812 -17.878906 5.484375 -18.296875 7.265625 -18.296875 C 7.554688 -18.296875 7.769531 -18.289062 7.90625 -18.28125 L 7.90625 -14.890625 C 7.144531 -14.941406 6.609375 -14.832031 6.296875 -14.5625 C 5.992188 -14.300781 5.84375 -13.828125 5.84375 -13.140625 L 5.84375 -13.03125 L 7.984375 -13.03125 Z M 7.984375 -9.71875 "/></g></g></g><g fill="#000000" fill-opacity="1"><g transform="translate(117.27687, 287.287578)"><g><path d="M 3.453125 -14.375 C 2.753906 -14.375 2.179688 -14.578125 1.734375 -14.984375 C 1.296875 -15.398438 1.078125 -15.914062 1.078125 -16.53125 C 1.078125 -17.15625 1.296875 -17.671875 1.734375 -18.078125 C 2.179688 -18.492188 2.753906 -18.703125 3.453125 -18.703125 C 4.140625 -18.703125 4.703125 -18.492188 5.140625 -18.078125 C 5.585938 -17.671875 5.8125 -17.15625 5.8125 -16.53125 C 5.8125 -15.914062 5.585938 -15.398438 5.140625 -14.984375 C 4.703125 -14.578125 4.140625 -14.375 3.453125 -14.375 Z M 5.4375 -13.03125 L 5.4375 0 L 1.453125 0 L 1.453125 -13.03125 Z M 5.4375 -13.03125 "/></g></g></g><g fill="#000000" fill-opacity="1"><g transform="translate(124.164445, 287.287578)"><g><path d="M 0.65625 -6.515625 C 0.65625 -7.867188 0.929688 -9.050781 1.484375 -10.0625 C 2.035156 -11.070312 2.804688 -11.847656 3.796875 -12.390625 C 4.785156 -12.941406 5.914062 -13.21875 7.1875 -13.21875 C 8.820312 -13.21875 10.1875 -12.785156 11.28125 -11.921875 C 12.382812 -11.066406 13.109375 -9.863281 13.453125 -8.3125 L 9.203125 -8.3125 C 8.835938 -9.300781 8.144531 -9.796875 7.125 -9.796875 C 6.382812 -9.796875 5.796875 -9.507812 5.359375 -8.9375 C 4.929688 -8.375 4.71875 -7.566406 4.71875 -6.515625 C 4.71875 -5.453125 4.929688 -4.632812 5.359375 -4.0625 C 5.796875 -3.5 6.382812 -3.21875 7.125 -3.21875 C 8.144531 -3.21875 8.835938 -3.71875 9.203125 -4.71875 L 13.453125 -4.71875 C 13.109375 -3.1875 12.382812 -1.984375 11.28125 -1.109375 C 10.175781 -0.242188 8.8125 0.1875 7.1875 0.1875 C 5.914062 0.1875 4.785156 -0.0820312 3.796875 -0.625 C 2.804688 -1.175781 2.035156 -1.957031 1.484375 -2.96875 C 0.929688 -3.976562 0.65625 -5.160156 0.65625 -6.515625 Z M 0.65625 -6.515625 "/></g></g></g><g fill="#000000" fill-opacity="1"><g transform="translate(138.289803, 287.287578)"><g/></g></g><g fill="#000000" fill-opacity="1"><g transform="translate(143.239511, 287.287578)"><g><path d="M 11.65625 -2.890625 L 5.53125 -2.890625 L 4.546875 0 L 0.375 0 L 6.296875 -16.390625 L 10.921875 -16.390625 L 16.859375 0 L 12.625 0 Z M 10.625 -5.96875 L 8.59375 -11.96875 L 6.578125 -5.96875 Z M 10.625 -5.96875 "/></g></g></g><g fill="#000000" fill-opacity="1"><g transform="translate(160.446764, 287.287578)"><g><path d="M 9.390625 -13.171875 C 10.910156 -13.171875 12.125 -12.675781 13.03125 -11.6875 C 13.945312 -10.695312 14.40625 -9.335938 14.40625 -7.609375 L 14.40625 0 L 10.4375 0 L 10.4375 -7.078125 C 10.4375 -7.941406 10.207031 -8.613281 9.75 -9.09375 C 9.300781 -9.582031 8.695312 -9.828125 7.9375 -9.828125 C 7.175781 -9.828125 6.566406 -9.582031 6.109375 -9.09375 C 5.660156 -8.613281 5.4375 -7.941406 5.4375 -7.078125 L 5.4375 0 L 1.453125 0 L 1.453125 -13.03125 L 5.4375 -13.03125 L 5.4375 -11.296875 C 5.84375 -11.867188 6.382812 -12.320312 7.0625 -12.65625 C 7.75 -13 8.523438 -13.171875 9.390625 -13.171875 Z M 9.390625 -13.171875 "/></g></g></g><g fill="#000000" fill-opacity="1"><g transform="translate(176.183116, 287.287578)"><g><path d="M 0.65625 -6.53125 C 0.65625 -7.875 0.90625 -9.050781 1.40625 -10.0625 C 1.914062 -11.070312 2.601562 -11.847656 3.46875 -12.390625 C 4.34375 -12.941406 5.316406 -13.21875 6.390625 -13.21875 C 7.316406 -13.21875 8.125 -13.03125 8.8125 -12.65625 C 9.5 -12.28125 10.03125 -11.789062 10.40625 -11.1875 L 10.40625 -13.03125 L 14.40625 -13.03125 L 14.40625 0 L 10.40625 0 L 10.40625 -1.84375 C 10.019531 -1.238281 9.476562 -0.75 8.78125 -0.375 C 8.09375 0 7.289062 0.1875 6.375 0.1875 C 5.3125 0.1875 4.34375 -0.0859375 3.46875 -0.640625 C 2.601562 -1.191406 1.914062 -1.976562 1.40625 -3 C 0.90625 -4.019531 0.65625 -5.195312 0.65625 -6.53125 Z M 10.40625 -6.515625 C 10.40625 -7.503906 10.128906 -8.285156 9.578125 -8.859375 C 9.023438 -9.441406 8.351562 -9.734375 7.5625 -9.734375 C 6.769531 -9.734375 6.097656 -9.445312 5.546875 -8.875 C 4.992188 -8.3125 4.71875 -7.53125 4.71875 -6.53125 C 4.71875 -5.539062 4.992188 -4.753906 5.546875 -4.171875 C 6.097656 -3.585938 6.769531 -3.296875 7.5625 -3.296875 C 8.351562 -3.296875 9.023438 -3.582031 9.578125 -4.15625 C 10.128906 -4.726562 10.40625 -5.515625 10.40625 -6.515625 Z M 10.40625 -6.515625 "/></g></g></g><g fill="#000000" fill-opacity="1"><g transform="translate(192.036209, 287.287578)"><g><path d="M 5.4375 -17.28125 L 5.4375 0 L 1.453125 0 L 1.453125 -17.28125 Z M 5.4375 -17.28125 "/></g></g></g><g fill="#000000" fill-opacity="1"><g transform="translate(198.923784, 287.287578)"><g><path d="M 14.75 -13.03125 L 6.578125 6.1875 L 2.28125 6.1875 L 5.28125 -0.4375 L -0.015625 -13.03125 L 4.4375 -13.03125 L 7.453125 -4.875 L 10.4375 -13.03125 Z M 14.75 -13.03125 "/></g></g></g><g fill="#000000" fill-opacity="1"><g transform="translate(213.679534, 287.287578)"><g><path d="M 6.75 0.1875 C 5.613281 0.1875 4.597656 -0.00390625 3.703125 -0.390625 C 2.816406 -0.785156 2.117188 -1.320312 1.609375 -2 C 1.097656 -2.675781 0.8125 -3.429688 0.75 -4.265625 L 4.6875 -4.265625 C 4.738281 -3.816406 4.945312 -3.453125 5.3125 -3.171875 C 5.6875 -2.890625 6.148438 -2.75 6.703125 -2.75 C 7.203125 -2.75 7.585938 -2.847656 7.859375 -3.046875 C 8.128906 -3.242188 8.265625 -3.5 8.265625 -3.8125 C 8.265625 -4.175781 8.066406 -4.445312 7.671875 -4.625 C 7.285156 -4.8125 6.660156 -5.015625 5.796875 -5.234375 C 4.859375 -5.453125 4.078125 -5.679688 3.453125 -5.921875 C 2.828125 -6.160156 2.289062 -6.539062 1.84375 -7.0625 C 1.394531 -7.582031 1.171875 -8.285156 1.171875 -9.171875 C 1.171875 -9.921875 1.375 -10.601562 1.78125 -11.21875 C 2.195312 -11.832031 2.804688 -12.316406 3.609375 -12.671875 C 4.410156 -13.035156 5.363281 -13.21875 6.46875 -13.21875 C 8.101562 -13.21875 9.390625 -12.8125 10.328125 -12 C 11.265625 -11.1875 11.804688 -10.113281 11.953125 -8.78125 L 8.265625 -8.78125 C 8.203125 -9.226562 8.003906 -9.582031 7.671875 -9.84375 C 7.335938 -10.113281 6.894531 -10.25 6.34375 -10.25 C 5.882812 -10.25 5.53125 -10.160156 5.28125 -9.984375 C 5.03125 -9.804688 4.90625 -9.5625 4.90625 -9.25 C 4.90625 -8.875 5.101562 -8.59375 5.5 -8.40625 C 5.894531 -8.21875 6.515625 -8.03125 7.359375 -7.84375 C 8.316406 -7.59375 9.097656 -7.347656 9.703125 -7.109375 C 10.316406 -6.867188 10.851562 -6.476562 11.3125 -5.9375 C 11.769531 -5.40625 12.003906 -4.6875 12.015625 -3.78125 C 12.015625 -3.019531 11.800781 -2.335938 11.375 -1.734375 C 10.945312 -1.140625 10.332031 -0.671875 9.53125 -0.328125 C 8.726562 0.015625 7.800781 0.1875 6.75 0.1875 Z M 6.75 0.1875 "/></g></g></g><g fill="#000000" fill-opacity="1"><g transform="translate(226.707549, 287.287578)"><g><path d="M 3.453125 -14.375 C 2.753906 -14.375 2.179688 -14.578125 1.734375 -14.984375 C 1.296875 -15.398438 1.078125 -15.914062 1.078125 -16.53125 C 1.078125 -17.15625 1.296875 -17.671875 1.734375 -18.078125 C 2.179688 -18.492188 2.753906 -18.703125 3.453125 -18.703125 C 4.140625 -18.703125 4.703125 -18.492188 5.140625 -18.078125 C 5.585938 -17.671875 5.8125 -17.15625 5.8125 -16.53125 C 5.8125 -15.914062 5.585938 -15.398438 5.140625 -14.984375 C 4.703125 -14.578125 4.140625 -14.375 3.453125 -14.375 Z M 5.4375 -13.03125 L 5.4375 0 L 1.453125 0 L 1.453125 -13.03125 Z M 5.4375 -13.03125 "/></g></g></g><g fill="#000000" fill-opacity="1"><g transform="translate(233.595124, 287.287578)"><g><path d="M 6.75 0.1875 C 5.613281 0.1875 4.597656 -0.00390625 3.703125 -0.390625 C 2.816406 -0.785156 2.117188 -1.320312 1.609375 -2 C 1.097656 -2.675781 0.8125 -3.429688 0.75 -4.265625 L 4.6875 -4.265625 C 4.738281 -3.816406 4.945312 -3.453125 5.3125 -3.171875 C 5.6875 -2.890625 6.148438 -2.75 6.703125 -2.75 C 7.203125 -2.75 7.585938 -2.847656 7.859375 -3.046875 C 8.128906 -3.242188 8.265625 -3.5 8.265625 -3.8125 C 8.265625 -4.175781 8.066406 -4.445312 7.671875 -4.625 C 7.285156 -4.8125 6.660156 -5.015625 5.796875 -5.234375 C 4.859375 -5.453125 4.078125 -5.679688 3.453125 -5.921875 C 2.828125 -6.160156 2.289062 -6.539062 1.84375 -7.0625 C 1.394531 -7.582031 1.171875 -8.285156 1.171875 -9.171875 C 1.171875 -9.921875 1.375 -10.601562 1.78125 -11.21875 C 2.195312 -11.832031 2.804688 -12.316406 3.609375 -12.671875 C 4.410156 -13.035156 5.363281 -13.21875 6.46875 -13.21875 C 8.101562 -13.21875 9.390625 -12.8125 10.328125 -12 C 11.265625 -11.1875 11.804688 -10.113281 11.953125 -8.78125 L 8.265625 -8.78125 C 8.203125 -9.226562 8.003906 -9.582031 7.671875 -9.84375 C 7.335938 -10.113281 6.894531 -10.25 6.34375 -10.25 C 5.882812 -10.25 5.53125 -10.160156 5.28125 -9.984375 C 5.03125 -9.804688 4.90625 -9.5625 4.90625 -9.25 C 4.90625 -8.875 5.101562 -8.59375 5.5 -8.40625 C 5.894531 -8.21875 6.515625 -8.03125 7.359375 -7.84375 C 8.316406 -7.59375 9.097656 -7.347656 9.703125 -7.109375 C 10.316406 -6.867188 10.851562 -6.476562 11.3125 -5.9375 C 11.769531 -5.40625 12.003906 -4.6875 12.015625 -3.78125 C 12.015625 -3.019531 11.800781 -2.335938 11.375 -1.734375 C 10.945312 -1.140625 10.332031 -0.671875 9.53125 -0.328125 C 8.726562 0.015625 7.800781 0.1875 6.75 0.1875 Z M 6.75 0.1875 "/></g></g></g><g fill="#000000" fill-opacity="1"><g transform="translate(246.628039, 287.287578)"><g/></g></g></svg>